<svg width="209" height="73" viewBox="0 0 209 73" fill="none" xmlns="http://www.w3.org/2000/svg">
  <path
    d="M20 19V17.5H18.5V19H20ZM209 19H210.5V17.5H209V19ZM209 73V74.5H210.5V73H209ZM20 73H18.5V74.5H20V73ZM20 20.5H209V17.5H20V20.5ZM207.5 19V73H210.5V19H207.5ZM209 71.5H20V74.5H209V71.5ZM21.5 73V19H18.5V73H21.5Z"
    fill="#E6E8EC" />
  <line x1="170.018" y1="52.9572" x2="189.251" y2="72.1905" stroke="#E6E8EC" stroke-width="1.5" />
  <line x1="138.018" y1="52.9572" x2="157.251" y2="72.1905" stroke="#E6E8EC" stroke-width="1.5" />
  <line x1="106.018" y1="52.9572" x2="125.251" y2="72.1905" stroke="#E6E8EC" stroke-width="1.5" />
  <line x1="74.0178" y1="52.9572" x2="93.2511" y2="72.1905" stroke="#E6E8EC" stroke-width="1.5" />
  <line x1="187.53" y1="30.4697" x2="208.178" y2="51.1172" stroke="#E6E8EC" stroke-width="1.5" />
  <path d="M0 0H188V54H0V0Z" fill="#141531" />
  <path
    d="M40.128 32.16C39.056 32.16 38.112 31.92 37.296 31.44C36.48 30.96 35.84 30.2693 35.376 29.368C34.9173 28.4667 34.688 27.384 34.688 26.12C34.688 24.872 34.912 23.8027 35.36 22.912C35.8133 22.0213 36.44 21.3387 37.24 20.864C38.0453 20.3893 38.9733 20.152 40.024 20.152C40.7707 20.152 41.464 20.2933 42.104 20.576C42.7493 20.8587 43.28 21.2827 43.696 21.848C44.112 22.408 44.352 23.112 44.416 23.96H42.216C42.1787 23.7627 42.1067 23.5653 42 23.368C41.8933 23.1653 41.7493 22.9813 41.568 22.816C41.392 22.6453 41.1733 22.5093 40.912 22.408C40.656 22.3067 40.3547 22.256 40.008 22.256C39.544 22.256 39.1253 22.3413 38.752 22.512C38.3787 22.6827 38.0587 22.936 37.792 23.272C37.5307 23.6027 37.328 24.0107 37.184 24.496C37.0453 24.976 36.976 25.528 36.976 26.152C36.976 26.9787 37.096 27.6827 37.336 28.264C37.576 28.8453 37.9333 29.2907 38.408 29.6C38.8827 29.904 39.4667 30.056 40.16 30.056C40.4373 30.056 40.7173 30.032 41 29.984C41.2827 29.936 41.5467 29.8667 41.792 29.776C42.0427 29.68 42.2533 29.56 42.424 29.416V27.64H40.224V25.728H44.544L44.536 30.608C43.9173 31.072 43.248 31.448 42.528 31.736C41.808 32.0187 41.008 32.16 40.128 32.16ZM50.0703 32.12C49.2063 32.12 48.4649 31.9467 47.8463 31.6C47.2276 31.248 46.7529 30.7387 46.4223 30.072C46.0916 29.4 45.9263 28.584 45.9263 27.624C45.9263 26.6533 46.0996 25.832 46.4463 25.16C46.7983 24.488 47.2863 23.976 47.9103 23.624C48.5396 23.272 49.2703 23.096 50.1023 23.096C50.9129 23.096 51.5983 23.2533 52.1583 23.568C52.7236 23.8773 53.1529 24.3387 53.4462 24.952C53.7396 25.56 53.8863 26.3067 53.8863 27.192C53.8863 27.336 53.8809 27.472 53.8703 27.6C53.8649 27.728 53.8569 27.88 53.8463 28.056H48.1023C48.1556 28.856 48.3503 29.4427 48.6863 29.816C49.0276 30.1893 49.4703 30.376 50.0143 30.376C50.4943 30.376 50.8596 30.272 51.1103 30.064C51.3609 29.856 51.5183 29.6027 51.5823 29.304H53.7023C53.6543 29.8853 53.4729 30.3893 53.1583 30.816C52.8489 31.2373 52.4303 31.56 51.9023 31.784C51.3796 32.008 50.7689 32.12 50.0703 32.12ZM49.0463 26.704H51.7343C51.7129 26.1067 51.5663 25.6533 51.2943 25.344C51.0276 25.0347 50.6009 24.88 50.0143 24.88C49.3689 24.88 48.8916 25.104 48.5823 25.552C48.2783 25.9947 48.1129 26.6187 48.0863 27.424C48.1289 27.1467 48.2276 26.9573 48.3823 26.856C48.5369 26.7547 48.7583 26.704 49.0463 26.704ZM58.1441 32.112C57.4348 32.112 56.8828 31.9333 56.4881 31.576C56.0935 31.2133 55.8961 30.6747 55.8961 29.96L55.8801 25.808C55.8801 25.6213 55.9281 25.4613 56.0241 25.328C56.1201 25.1947 56.2561 25.1067 56.4321 25.064L55.8801 23.616V23.368L56.3201 20.768H58.0721V29.328C58.0721 29.6693 58.1281 29.9067 58.2401 30.04C58.3575 30.1733 58.5735 30.24 58.8881 30.24C59.1388 30.24 59.3601 30.2373 59.5521 30.232C59.7441 30.2267 59.9201 30.216 60.0801 30.2V31.992C59.8508 32.056 59.5575 32.0907 59.2001 32.096C58.8428 32.1067 58.4908 32.112 58.1441 32.112ZM54.8481 25.064V23.264H60.0561V25.064H54.8481ZM67.5503 32.136C66.8409 32.136 66.2223 32.032 65.6943 31.824C65.1663 31.616 64.7503 31.3013 64.4463 30.88C64.1476 30.4533 63.9823 29.9093 63.9503 29.248H66.0943C66.1529 29.6853 66.3103 30.0027 66.5663 30.2C66.8223 30.392 67.1529 30.488 67.5583 30.488C67.8036 30.488 68.0303 30.4613 68.2383 30.408C68.4463 30.3547 68.6116 30.264 68.7343 30.136C68.8623 30.008 68.9263 29.832 68.9263 29.608C68.9263 29.4373 68.8863 29.2987 68.8063 29.192C68.7263 29.08 68.6063 28.9867 68.4463 28.912C68.2916 28.832 68.0996 28.7573 67.8703 28.688C67.6409 28.6187 67.3769 28.5413 67.0783 28.456C66.5503 28.3013 66.0649 28.1173 65.6223 27.904C65.1796 27.6853 64.8249 27.3973 64.5583 27.04C64.2916 26.6827 64.1583 26.216 64.1583 25.64C64.1583 24.8133 64.4623 24.1867 65.0703 23.76C65.6783 23.328 66.4703 23.112 67.4462 23.112C68.0436 23.112 68.5823 23.1947 69.0623 23.36C69.5423 23.5253 69.9369 23.8107 70.2463 24.216C70.5609 24.6213 70.7609 25.184 70.8463 25.904L68.7183 25.896C68.6543 25.5653 68.5529 25.3173 68.4143 25.152C68.2809 24.9813 68.1263 24.8667 67.9503 24.808C67.7796 24.7493 67.5983 24.72 67.4062 24.72C67.1929 24.72 67.0009 24.7547 66.8303 24.824C66.6649 24.888 66.5369 24.984 66.4463 25.112C66.3556 25.24 66.3103 25.3947 66.3103 25.576C66.3103 25.8 66.3743 25.9867 66.5023 26.136C66.6356 26.2853 66.8356 26.416 67.1023 26.528C67.3743 26.6347 67.7129 26.7493 68.1183 26.872C68.4169 26.952 68.7369 27.0453 69.0783 27.152C69.4196 27.2587 69.7423 27.4027 70.0463 27.584C70.3503 27.76 70.5983 28 70.7903 28.304C70.9876 28.6027 71.0863 28.992 71.0863 29.472C71.0863 30.3093 70.7663 30.9627 70.1263 31.432C69.4863 31.9013 68.6276 32.136 67.5503 32.136ZM75.3629 32.112C74.6535 32.112 74.1015 31.9333 73.7069 31.576C73.3122 31.2133 73.1149 30.6747 73.1149 29.96L73.0989 25.808C73.0989 25.6213 73.1469 25.4613 73.2429 25.328C73.3389 25.1947 73.4749 25.1067 73.6509 25.064L73.0989 23.616V23.368L73.5389 20.768H75.2909V29.328C75.2909 29.6693 75.3469 29.9067 75.4589 30.04C75.5762 30.1733 75.7922 30.24 76.1069 30.24C76.3575 30.24 76.5789 30.2373 76.7709 30.232C76.9629 30.2267 77.1389 30.216 77.2989 30.2V31.992C77.0695 32.056 76.7762 32.0907 76.4189 32.096C76.0615 32.1067 75.7095 32.112 75.3629 32.112ZM72.0669 25.064V23.264H77.2749V25.064H72.0669ZM81.1241 32.096C80.6121 32.096 80.1508 32 79.7401 31.808C79.3348 31.616 79.0148 31.3387 78.7801 30.976C78.5508 30.6133 78.4361 30.184 78.4361 29.688C78.4361 29.1653 78.5375 28.736 78.7401 28.4C78.9428 28.0587 79.2255 27.7893 79.5881 27.592C79.9508 27.3893 80.3695 27.24 80.8441 27.144C81.1748 27.0747 81.5161 27.0187 81.8681 26.976C82.2255 26.928 82.5588 26.8907 82.8681 26.864C83.1775 26.8373 83.4281 26.816 83.6201 26.8V26.504C83.6201 25.9333 83.5161 25.52 83.3081 25.264C83.1001 25.0027 82.7428 24.872 82.2361 24.872C81.9108 24.872 81.6361 24.9147 81.4121 25C81.1935 25.0853 81.0281 25.24 80.9161 25.464C80.8041 25.688 80.7481 26.0107 80.7481 26.432H78.6841C78.6255 25.6693 78.7401 25.0427 79.0281 24.552C79.3215 24.0613 79.7508 23.6987 80.3161 23.464C80.8868 23.224 81.5561 23.104 82.3241 23.104C82.7775 23.104 83.2095 23.1547 83.6201 23.256C84.0361 23.352 84.4041 23.52 84.7241 23.76C85.0495 23.9947 85.3055 24.3173 85.4921 24.728C85.6841 25.1387 85.7801 25.6587 85.7801 26.288V32H83.6041L83.6201 30C83.5241 30.5867 83.2788 31.0827 82.8841 31.488C82.4895 31.8933 81.9028 32.096 81.1241 32.096ZM81.7961 30.552C82.0681 30.552 82.3321 30.504 82.5881 30.408C82.8495 30.3067 83.0735 30.168 83.2601 29.992C83.4521 29.816 83.5721 29.6133 83.6201 29.384V27.904C83.4068 27.936 83.1748 27.9733 82.9241 28.016C82.6735 28.0587 82.4548 28.1013 82.2681 28.144C81.7028 28.2613 81.3055 28.424 81.0761 28.632C80.8521 28.8347 80.7401 29.12 80.7401 29.488C80.7401 29.7067 80.7828 29.896 80.8681 30.056C80.9588 30.216 81.0841 30.3387 81.2441 30.424C81.4095 30.5093 81.5935 30.552 81.7961 30.552ZM87.9093 32V23.264H89.8533L90.0613 26.664L89.9013 26.168C89.9493 25.7573 90.0293 25.368 90.1413 25C90.2586 24.632 90.4159 24.304 90.6133 24.016C90.8159 23.728 91.0639 23.5013 91.3573 23.336C91.6559 23.1707 92.0053 23.088 92.4053 23.088C92.5119 23.088 92.6186 23.0933 92.7253 23.104C92.8373 23.1147 92.9359 23.1333 93.0213 23.16V25.48C92.8399 25.4267 92.6559 25.392 92.4693 25.376C92.2879 25.3547 92.1119 25.344 91.9413 25.344C91.6906 25.344 91.4453 25.3787 91.2053 25.448C90.9653 25.512 90.7519 25.6133 90.5653 25.752C90.3786 25.8853 90.2319 26.0533 90.1253 26.256V32H87.9093ZM97.3629 32.112C96.6535 32.112 96.1015 31.9333 95.7069 31.576C95.3122 31.2133 95.1149 30.6747 95.1149 29.96L95.0989 25.808C95.0989 25.6213 95.1469 25.4613 95.2429 25.328C95.3389 25.1947 95.4749 25.1067 95.6509 25.064L95.0989 23.616V23.368L95.5389 20.768H97.2909V29.328C97.2909 29.6693 97.3469 29.9067 97.4589 30.04C97.5762 30.1733 97.7922 30.24 98.1069 30.24C98.3575 30.24 98.5789 30.2373 98.7709 30.232C98.9629 30.2267 99.1389 30.216 99.2989 30.2V31.992C99.0695 32.056 98.7762 32.0907 98.4189 32.096C98.0615 32.1067 97.7095 32.112 97.3629 32.112ZM94.0669 25.064V23.264H99.2749V25.064H94.0669ZM104.383 32.12C103.519 32.12 102.777 31.9467 102.159 31.6C101.54 31.248 101.065 30.7387 100.735 30.072C100.404 29.4 100.239 28.584 100.239 27.624C100.239 26.6533 100.412 25.832 100.759 25.16C101.111 24.488 101.599 23.976 102.223 23.624C102.852 23.272 103.583 23.096 104.415 23.096C105.225 23.096 105.911 23.2533 106.471 23.568C107.036 23.8773 107.465 24.3387 107.759 24.952C108.052 25.56 108.199 26.3067 108.199 27.192C108.199 27.336 108.193 27.472 108.183 27.6C108.177 27.728 108.169 27.88 108.159 28.056H102.415C102.468 28.856 102.663 29.4427 102.999 29.816C103.34 30.1893 103.783 30.376 104.327 30.376C104.807 30.376 105.172 30.272 105.423 30.064C105.673 29.856 105.831 29.6027 105.895 29.304H108.015C107.967 29.8853 107.785 30.3893 107.471 30.816C107.161 31.2373 106.743 31.56 106.215 31.784C105.692 32.008 105.081 32.12 104.383 32.12ZM103.359 26.704H106.047C106.025 26.1067 105.879 25.6533 105.607 25.344C105.34 25.0347 104.913 24.88 104.327 24.88C103.681 24.88 103.204 25.104 102.895 25.552C102.591 25.9947 102.425 26.6187 102.399 27.424C102.441 27.1467 102.54 26.9573 102.695 26.856C102.849 26.7547 103.071 26.704 103.359 26.704ZM112.82 32.104C112.105 32.104 111.497 31.9147 110.996 31.536C110.5 31.152 110.124 30.6213 109.868 29.944C109.612 29.2667 109.484 28.4827 109.484 27.592C109.484 26.6267 109.638 25.8107 109.948 25.144C110.257 24.4773 110.673 23.9707 111.196 23.624C111.718 23.2773 112.3 23.104 112.94 23.104C113.441 23.104 113.854 23.1893 114.18 23.36C114.505 23.5253 114.756 23.736 114.932 23.992C115.108 24.248 115.222 24.5013 115.276 24.752L115.692 25.216L115.172 25.84C115.124 25.6693 115.036 25.5173 114.908 25.384C114.785 25.2453 114.617 25.136 114.404 25.056C114.196 24.976 113.934 24.936 113.62 24.936C113.038 24.936 112.574 25.152 112.228 25.584C111.881 26.016 111.708 26.6987 111.708 27.632C111.708 28.496 111.87 29.1573 112.196 29.616C112.521 30.0693 112.969 30.296 113.54 30.296C113.865 30.296 114.142 30.2453 114.372 30.144C114.606 30.0373 114.79 29.9147 114.924 29.776C115.062 29.632 115.145 29.504 115.172 29.392L115.268 29.576L115.172 29.992C115.124 30.2373 115.046 30.4853 114.94 30.736C114.833 30.9867 114.689 31.216 114.508 31.424C114.326 31.6267 114.097 31.792 113.82 31.92C113.548 32.0427 113.214 32.104 112.82 32.104ZM115.18 32L115.172 19.552H117.372V32H115.18ZM122.409 32V23.264H124.353L124.561 26.56L124.449 25.896C124.513 25.416 124.639 24.9627 124.825 24.536C125.012 24.104 125.292 23.7547 125.665 23.488C126.044 23.2213 126.543 23.088 127.161 23.088C127.972 23.088 128.612 23.3467 129.081 23.864C129.551 24.376 129.785 25.16 129.785 26.216V32H127.577V27.016C127.577 26.488 127.527 26.0773 127.425 25.784C127.329 25.4853 127.183 25.2747 126.985 25.152C126.793 25.0293 126.548 24.968 126.249 24.968C125.887 24.968 125.559 25.08 125.265 25.304C124.977 25.528 124.764 25.7867 124.625 26.08V32H122.409ZM135.485 32.12C134.658 32.12 133.938 31.9467 133.325 31.6C132.711 31.2533 132.237 30.744 131.901 30.072C131.565 29.3947 131.397 28.5653 131.397 27.584C131.397 26.656 131.573 25.856 131.925 25.184C132.282 24.512 132.773 23.9973 133.397 23.64C134.021 23.2773 134.727 23.096 135.516 23.096C136.37 23.096 137.101 23.2773 137.709 23.64C138.322 23.9973 138.791 24.512 139.117 25.184C139.442 25.856 139.605 26.656 139.605 27.584C139.605 28.5653 139.423 29.3947 139.061 30.072C138.698 30.744 138.205 31.2533 137.581 31.6C136.962 31.9467 136.263 32.12 135.485 32.12ZM135.516 30.272C136.061 30.272 136.509 30.0693 136.861 29.664C137.218 29.2587 137.397 28.5653 137.397 27.584C137.397 26.672 137.218 26.0053 136.861 25.584C136.503 25.1573 136.045 24.944 135.485 24.944C134.941 24.944 134.493 25.1547 134.141 25.576C133.789 25.9973 133.613 26.6667 133.613 27.584C133.613 28.5227 133.794 29.2053 134.157 29.632C134.519 30.0587 134.973 30.272 135.516 30.272ZM142.868 32L140.308 23.272H142.66L143.588 27.52L144.092 30.192H144.188L144.604 27.52L145.548 23.272H148.308L149.244 27.528L149.66 30.248L149.756 30.24L150.268 27.528L151.196 23.272H153.548L150.996 32H148.388L147.428 27.984L146.988 25.456H146.876L146.42 27.992L145.468 32H142.868Z"
    fill="white" />
  <path
    d="M0 0V-1.5H-1.5V0H0ZM188 0H189.5V-1.5H188V0ZM188 54V55.5H189.5V54H188ZM0 54H-1.5V55.5H0V54ZM0 1.5H188V-1.5H0V1.5ZM186.5 0V54H189.5V0H186.5ZM188 52.5H0V55.5H188V52.5ZM1.5 54V0H-1.5V54H1.5Z"
    fill="#E6E8EC" />
</svg>