<svg width="120" height="15" viewBox="0 0 111 14" fill="none" xmlns="http://www.w3.org/2000/svg">
  <path
    d="M11.0532 0.0281982C11.2214 0.0281982 11.3687 0.0912892 11.4948 0.217471C11.621 0.343653 11.6841 0.490865 11.6841 0.659107V12.7365C11.6841 12.9047 11.621 13.052 11.4948 13.1781C11.3687 13.3043 11.2214 13.3674 11.0532 13.3674H9.46691C9.2506 13.3674 9.07635 13.2833 8.94416 13.1151L0.129459 1.03765C0.0573554 0.941514 0.0152948 0.833358 0.00327745 0.713185C-0.00873987 0.593012 0.0122905 0.478848 0.0663684 0.370692C0.120446 0.262536 0.198559 0.178415 0.300706 0.118328C0.402853 0.0582414 0.514013 0.0281982 0.634186 0.0281982H2.22047C2.31661 0.0281982 2.41275 0.0492287 2.50889 0.0912893C2.60503 0.13335 2.67713 0.196441 2.7252 0.280562L9.05231 8.87895V0.659107C9.05231 0.490865 9.1124 0.343653 9.23257 0.217471C9.35275 0.0912892 9.50296 0.0281982 9.68322 0.0281982H11.0532ZM2.00416 8.77079C2.1724 8.77079 2.31961 8.83088 2.4458 8.95105C2.57198 9.07123 2.63507 9.22144 2.63507 9.4017V12.7365C2.63507 12.9047 2.57198 13.052 2.4458 13.1781C2.31961 13.3043 2.1724 13.3674 2.00416 13.3674H0.634186C0.465944 13.3674 0.318732 13.3043 0.19255 13.1781C0.0663684 13.052 0.00327745 12.9047 0.00327745 12.7365V9.4017C0.00327745 9.22144 0.0663684 9.07123 0.19255 8.95105C0.318732 8.83088 0.465944 8.77079 0.634186 8.77079H2.00416ZM25.7227 10.8077C25.903 10.8077 26.0532 10.8708 26.1734 10.997C26.2936 11.1232 26.3536 11.2764 26.3536 11.4567V12.7726C26.3536 12.9408 26.2936 13.088 26.1734 13.2142C26.0532 13.3404 25.903 13.4035 25.7227 13.4035H16.8179C16.6497 13.4035 16.5024 13.3404 16.3763 13.2142C16.2501 13.088 16.187 12.9408 16.187 12.7726V11.4567C16.187 11.2764 16.2501 11.1232 16.3763 10.997C16.5024 10.8708 16.6497 10.8077 16.8179 10.8077H25.7227ZM16.8179 8.0137C16.6497 8.0137 16.5024 7.95061 16.3763 7.82443C16.2501 7.69825 16.187 7.55104 16.187 7.38279V6.03085C16.187 5.8626 16.2501 5.71539 16.3763 5.58921C16.5024 5.46303 16.6497 5.39994 16.8179 5.39994H24.9116C25.0918 5.39994 25.245 5.46303 25.3712 5.58921C25.4974 5.71539 25.5605 5.8626 25.5605 6.03085V7.38279C25.5605 7.55104 25.4974 7.69825 25.3712 7.82443C25.245 7.95061 25.0918 8.0137 24.9116 8.0137H16.8179ZM25.7227 0.0281982C25.903 0.0281982 26.0532 0.0912892 26.1734 0.217471C26.2936 0.343653 26.3536 0.490865 26.3536 0.659107V1.975C26.3536 2.15526 26.2936 2.30848 26.1734 2.43467C26.0532 2.56085 25.903 2.62394 25.7227 2.62394H16.8179C16.6497 2.62394 16.5024 2.56085 16.3763 2.43467C16.2501 2.30848 16.187 2.15526 16.187 1.975V0.659107C16.187 0.490865 16.2501 0.343653 16.3763 0.217471C16.5024 0.0912892 16.6497 0.0281982 16.8179 0.0281982H25.7227ZM41.9786 12.5202C42.0627 12.7125 42.0416 12.9078 41.9155 13.106C41.7893 13.3043 41.618 13.4035 41.4017 13.4035H29.3964C29.2883 13.4035 29.1861 13.3764 29.09 13.3224C28.9938 13.2683 28.9217 13.1992 28.8737 13.1151C28.7415 12.9228 28.7235 12.7245 28.8196 12.5202L29.3784 11.2043C29.4265 11.0841 29.5046 10.988 29.6127 10.9159C29.7209 10.8438 29.8351 10.8077 29.9552 10.8077H38.3553L35.3991 3.74155L32.9836 9.50986C32.9355 9.63003 32.8604 9.72317 32.7583 9.78926C32.6561 9.85536 32.539 9.8884 32.4068 9.8884H30.8926C30.6643 9.8884 30.484 9.79227 30.3518 9.59999C30.3037 9.51587 30.2737 9.41973 30.2617 9.31157C30.2497 9.20342 30.2617 9.10127 30.2977 9.00513L33.957 0.42477C34.0051 0.304597 34.0802 0.208458 34.1823 0.136354C34.2845 0.0642501 34.4016 0.0281982 34.5338 0.0281982H36.2643C36.3965 0.0281982 36.5137 0.0642501 36.6158 0.136354C36.718 0.208458 36.7931 0.304597 36.8412 0.42477L41.9786 12.5202ZM53.7099 8.23001L56.4318 12.394C56.564 12.6103 56.57 12.8266 56.4498 13.0429C56.4017 13.1391 56.3266 13.2172 56.2245 13.2773C56.1223 13.3374 56.0172 13.3674 55.909 13.3674H54.2687C54.1605 13.3674 54.0584 13.3404 53.9622 13.2863C53.8661 13.2322 53.794 13.1631 53.7459 13.079L51.006 8.73474H47.7973V12.7365C47.7973 12.9047 47.7342 13.052 47.6081 13.1781C47.4819 13.3043 47.3347 13.3674 47.1664 13.3674H45.7965C45.6282 13.3674 45.481 13.3043 45.3548 13.1781C45.2286 13.052 45.1655 12.9047 45.1655 12.7365V6.80596C45.1655 6.63772 45.2286 6.49051 45.3548 6.36433C45.481 6.23814 45.6282 6.17505 45.7965 6.17505H51.3485C52.406 6.17505 53.109 5.87462 53.4575 5.27376C53.5777 5.08148 53.6378 4.80508 53.6378 4.44456C53.6378 3.87975 53.4515 3.43511 53.0789 3.11064C52.6944 2.76214 52.1416 2.58789 51.4206 2.58789H45.7965C45.6282 2.58789 45.481 2.5248 45.3548 2.39861C45.2286 2.27243 45.1655 2.12522 45.1655 1.95698V0.659107C45.1655 0.490865 45.2286 0.343653 45.3548 0.217471C45.481 0.0912892 45.6282 0.0281982 45.7965 0.0281982H51.5828C52.9888 0.0281982 54.1124 0.42477 54.9537 1.21791C55.8309 2.01106 56.2695 3.0866 56.2695 4.44456C56.2695 5.32182 56.0773 6.0699 55.6927 6.68879C55.3082 7.30769 54.7494 7.77937 54.0163 8.10383L53.7099 8.23001ZM72.5794 0.0281982C72.7477 0.0281982 72.8949 0.0912892 73.0211 0.217471C73.1473 0.343653 73.2104 0.490865 73.2104 0.659107V12.7365C73.2104 12.9047 73.1473 13.052 73.0211 13.1781C72.8949 13.3043 72.7477 13.3674 72.5794 13.3674H71.2095C71.0292 13.3674 70.879 13.3043 70.7588 13.1781C70.6386 13.052 70.5786 12.9047 70.5786 12.7365V4.58877L67.2438 8.87895C67.1116 9.03517 66.9433 9.11329 66.739 9.11329C66.6429 9.11329 66.5468 9.09226 66.4506 9.0502C66.3545 9.00814 66.2824 8.94505 66.2343 8.86092L60.3218 1.03765C60.2497 0.953531 60.2076 0.84838 60.1956 0.722198C60.1836 0.596016 60.2076 0.481852 60.2677 0.379705C60.3278 0.277557 60.4059 0.193436 60.502 0.127341C60.5982 0.061246 60.7063 0.0281982 60.8265 0.0281982H62.4128C62.6171 0.0281982 62.7853 0.11232 62.9175 0.280562L66.739 5.32783L70.4704 0.280562C70.6026 0.11232 70.7768 0.0281982 70.9932 0.0281982H72.5794ZM62.1965 8.77079C62.3647 8.77079 62.5119 8.83088 62.6381 8.95105C62.7643 9.07123 62.8274 9.22144 62.8274 9.4017V12.7365C62.8274 12.9047 62.7643 13.052 62.6381 13.1781C62.5119 13.3043 62.3647 13.3674 62.1965 13.3674H60.8265C60.6583 13.3674 60.5111 13.3043 60.3849 13.1781C60.2587 13.052 60.1956 12.9047 60.1956 12.7365V9.4017C60.1956 9.22144 60.2587 9.07123 60.3849 8.95105C60.5111 8.83088 60.6583 8.77079 60.8265 8.77079H62.1965ZM79.7141 5.38191C79.8944 5.38191 80.0446 5.445 80.1648 5.57118C80.2849 5.69737 80.345 5.85059 80.345 6.03085V12.7726C80.345 12.9408 80.2849 13.088 80.1648 13.2142C80.0446 13.3404 79.8944 13.4035 79.7141 13.4035H78.3442C78.1759 13.4035 78.0287 13.3404 77.9025 13.2142C77.7763 13.088 77.7132 12.9408 77.7132 12.7726V6.03085C77.7132 5.85059 77.7763 5.69737 77.9025 5.57118C78.0287 5.445 78.1759 5.38191 78.3442 5.38191H79.7141ZM79.7141 0.0281982C79.8944 0.0281982 80.0446 0.0912892 80.1648 0.217471C80.2849 0.343653 80.345 0.490865 80.345 0.659107V3.99391C80.345 4.17417 80.2849 4.32739 80.1648 4.45357C80.0446 4.57976 79.8944 4.64285 79.7141 4.64285H78.3442C78.1759 4.64285 78.0287 4.57976 77.9025 4.45357C77.7763 4.32739 77.7132 4.17417 77.7132 3.99391V0.659107C77.7132 0.490865 77.7763 0.343653 77.9025 0.217471C78.0287 0.0912892 78.1759 0.0281982 78.3442 0.0281982H79.7141ZM95.8978 0.0281982C96.0661 0.0281982 96.2133 0.0912892 96.3395 0.217471C96.4657 0.343653 96.5288 0.490865 96.5288 0.659107V12.7365C96.5288 12.9047 96.4657 13.052 96.3395 13.1781C96.2133 13.3043 96.0661 13.3674 95.8978 13.3674H94.3116C94.0952 13.3674 93.921 13.2833 93.7888 13.1151L84.9741 1.03765C84.902 0.941514 84.8599 0.833358 84.8479 0.713185C84.8359 0.593012 84.8569 0.478848 84.911 0.370692C84.9651 0.262536 85.0432 0.178415 85.1453 0.118328C85.2475 0.0582414 85.3587 0.0281982 85.4788 0.0281982H87.0651C87.1613 0.0281982 87.2574 0.0492287 87.3535 0.0912893C87.4497 0.13335 87.5218 0.196441 87.5698 0.280562L93.897 8.87895V0.659107C93.897 0.490865 93.957 0.343653 94.0772 0.217471C94.1974 0.0912892 94.3476 0.0281982 94.5279 0.0281982H95.8978ZM86.8488 8.77079C87.017 8.77079 87.1643 8.83088 87.2904 8.95105C87.4166 9.07123 87.4797 9.22144 87.4797 9.4017V12.7365C87.4797 12.9047 87.4166 13.052 87.2904 13.1781C87.1643 13.3043 87.017 13.3674 86.8488 13.3674H85.4788C85.3106 13.3674 85.1634 13.3043 85.0372 13.1781C84.911 13.052 84.8479 12.9047 84.8479 12.7365V9.4017C84.8479 9.22144 84.911 9.07123 85.0372 8.95105C85.1634 8.83088 85.3106 8.77079 85.4788 8.77079H86.8488ZM102.311 0.0281982C102.492 0.0281982 102.645 0.0912892 102.771 0.217471C102.897 0.343653 102.96 0.496873 102.96 0.677133V1.99303C102.96 2.17329 102.897 2.32651 102.771 2.45269C102.645 2.57887 102.492 2.64196 102.311 2.64196H100.455C100.287 2.64196 100.139 2.57887 100.013 2.45269C99.887 2.32651 99.8239 2.17329 99.8239 1.99303V0.677133C99.8239 0.496873 99.887 0.343653 100.013 0.217471C100.139 0.0912892 100.287 0.0281982 100.455 0.0281982H102.311ZM110.369 0.0281982C110.537 0.0281982 110.685 0.0912892 110.811 0.217471C110.937 0.343653 111 0.496873 111 0.677133V1.99303C111 2.17329 110.937 2.32651 110.811 2.45269C110.685 2.57887 110.537 2.64196 110.369 2.64196H106.746V12.8807C106.746 13.049 106.683 13.1962 106.557 13.3224C106.43 13.4485 106.283 13.5116 106.115 13.5116H104.727C104.547 13.5116 104.393 13.4485 104.267 13.3224C104.141 13.1962 104.078 13.049 104.078 12.8807V0.677133C104.078 0.496873 104.141 0.343653 104.267 0.217471C104.393 0.0912892 104.547 0.0281982 104.727 0.0281982H110.369Z"
    fill="white" />
</svg>